<svg xmlns="http://www.w3.org/2000/svg" viewBox="0 0 500 500"><g id="freepik--background-simple--inject-2"><path d="M459.25,165a267.49,267.49,0,0,0-25.16-41.76C406,84.69,365.3,53.85,317.61,40.26,269,26.38,213.86,40,174.92,73.37a167.45,167.45,0,0,0-45.6,63.08c-7,17-14.56,34.16-26.42,48.8C92.56,198,79.06,208.26,68,220.49c-23,25.34-39.11,55.27-38.93,88.82.22,42.87,17.49,99.07,61.86,117.53,36.69,15.27,77.69-4.7,115.56-7.23,35.36-2.35,66.09,15.89,100.43,16.28,81.89.93,149.94-64.35,168.2-138.62C486.5,250.87,478.81,205.75,459.25,165Z" style="fill:#37474F"></path><path d="M459.25,165a267.49,267.49,0,0,0-25.16-41.76C406,84.69,365.3,53.85,317.61,40.26,269,26.38,213.86,40,174.92,73.37a167.45,167.45,0,0,0-45.6,63.08c-7,17-14.56,34.16-26.42,48.8C92.56,198,79.06,208.26,68,220.49c-23,25.34-39.11,55.27-38.93,88.82.22,42.87,17.49,99.07,61.86,117.53,36.69,15.27,77.69-4.7,115.56-7.23,35.36-2.35,66.09,15.89,100.43,16.28,81.89.93,149.94-64.35,168.2-138.62C486.5,250.87,478.81,205.75,459.25,165Z" style="fill:#fff;opacity:0.7000000000000001"></path></g><g id="freepik--Plants--inject-2"><path d="M39,363.66c2.88,1.26,9.93,1.1,9.93,1.1s-1.51-4.61-1.65-4.89c-1.54-3.23-6.43-8.57-10.41-8a4.76,4.76,0,0,0-3.81,6C33.75,360.54,36.58,362.59,39,363.66Z" style="fill:#263238"></path><path d="M41.46,384.07c3,.43,9.28-1.39,9.78-1.54a83.09,83.09,0,0,0,3.81,10.55c.87,2,1.8,4,2.76,6-.57-.84-1.09-1.59-1.18-1.68-2.34-2.72-8.47-6.57-12.16-5a4.74,4.74,0,0,0-2.1,6.74c1.36,2.49,4.63,3.71,7.28,4.1s8.08-1.06,9.5-1.46c.37.76.74,1.52,1.12,2.28,1.82,3.62,3.65,7.23,5.34,10.83.6,1.26,1.14,2.53,1.68,3.8-.51-.75-.94-1.37-1-1.46-2.34-2.71-8.47-6.57-12.16-5A4.76,4.76,0,0,0,52,419c1.37,2.48,4.64,3.71,7.28,4.1s7.56-.92,9.25-1.39c.52,1.32,1,2.63,1.48,3.93.29.89.62,1.73.86,2.65s.5,1.79.74,2.67c.41,1.71.85,3.48,1.21,5.16.26,1.17.48,2.29.71,3.42-.58-1.27-1.76-3.73-1.88-3.92-1.91-3-7.38-7.78-11.27-6.79a4.74,4.74,0,0,0-3.1,6.35c1,2.66,4,4.37,6.57,5.15,2.82.87,9.06.08,9.84,0,.38,1.87.72,3.69,1,5.41.67,3.79,1.17,7.19,1.56,10.07H78.9c-.46-3-1.06-6.52-1.85-10.51-.37-1.9-.81-3.91-1.28-6a52,52,0,0,0,5.49-2.58c2.06,2.22,7.32,4.83,8,5.16-.71,1.76-1.43,3.47-2.13,5.07-1.45,3.35-2.84,6.32-4.06,8.84h2.85c1-2.33,2.2-5,3.4-7.92.74-1.78,1.49-3.71,2.24-5.69.75.16,6.93,1.41,9.81.76,2.61-.59,5.77-2.06,6.94-4.64a4.75,4.75,0,0,0-2.62-6.57c-3.8-1.28-9.61,3-11.74,5.93-.12.17-1.28,2.17-2,3.44.3-.81.61-1.6.91-2.44.61-1.65,1.16-3.32,1.77-5.11.26-.88.53-1.77.79-2.66s.48-1.85.72-2.78c.52-2.17.93-4.4,1.31-6.65,1.45.52,6.63,2.33,9.31,2.14s6-1.17,7.56-3.55a4.74,4.74,0,0,0-1.59-6.88c-3.57-1.84-10,1.55-12.51,4.08-.15.16-1.77,2.18-2.64,3.3.21-1.35.43-2.71.6-4.09.5-4,.87-8,1.27-12.05.12-1.24.25-2.46.38-3.7.51.2,6.62,2.47,9.63,2.26,2.67-.19,6-1.17,7.56-3.54a4.75,4.75,0,0,0-1.59-6.89c-3.57-1.84-10,1.55-12.5,4.08-.2.19-2.52,3.1-3.08,3.87.29-2.71.6-5.41,1-8.06a84.32,84.32,0,0,1,2.32-10.6c.24.09,6.6,2.49,9.68,2.28,2.67-.19,6-1.17,7.57-3.55a4.75,4.75,0,0,0-1.6-6.88c-3.57-1.84-10,1.55-12.5,4.08-.2.2-2.7,3.33-3.12,3.93.06-.2.1-.42.17-.62a61.83,61.83,0,0,1,4.19-10c.92-1.79,1.89-3.44,2.87-5,1.14.57,6.38,3.11,9.17,3.22s6.11-.5,7.91-2.69a4.75,4.75,0,0,0-.83-7c-3.35-2.22-10.07.45-12.88,2.68-.15.13-1.56,1.53-2.58,2.57.46-.71.91-1.45,1.36-2.12,1.68-2.53,3.37-4.74,4.89-6.69.87-1.1,1.68-2.08,2.45-3,1.41,0,7.09-.19,9.57-1.36s5.19-3.26,5.78-6a4.75,4.75,0,0,0-4-5.85c-4-.43-8.74,5-10.19,8.31-.13.29-1.59,4.94-1.52,4.94h.09c-.76.85-1.56,1.78-2.41,2.82-1.56,1.91-3.31,4.09-5.05,6.6a82.67,82.67,0,0,0-5.23,8.33,61.7,61.7,0,0,0-4.47,10.07.56.56,0,0,0,0,.12c0-1.17,0-4.46-.06-4.71C102,372.6,99,366,95.05,365.28a4.75,4.75,0,0,0-5.48,4.46c-.23,2.83,1.82,5.65,3.81,7.44,2.26,2,8.51,4,9,4.11a85.44,85.44,0,0,0-2.64,10.9c-.38,2.15-.7,4.32-1,6.51,0-1,0-1.93,0-2.05-.47-3.56-3.44-10.15-7.39-10.88a4.75,4.75,0,0,0-5.48,4.46c-.23,2.83,1.82,5.65,3.81,7.44s7.32,3.57,8.73,4c-.1.84-.21,1.68-.31,2.52-.49,4-1,8.05-1.52,12-.21,1.38-.46,2.74-.7,4.1,0-.9,0-1.67,0-1.78-.46-3.56-3.44-10.15-7.38-10.88a4.74,4.74,0,0,0-5.48,4.47c-.24,2.82,1.81,5.65,3.81,7.43s6.81,3.4,8.48,3.94c-.3,1.39-.59,2.77-.93,4.1-.26.9-.45,1.79-.75,2.68s-.58,1.77-.86,2.64c-.6,1.65-1.21,3.37-1.84,5C90.41,439,90,440,89.55,441.1c.22-1.38.59-4.08.59-4.31a18.4,18.4,0,0,0-2.47-9,5.3,5.3,0,0,0-.07-1.05,4.74,4.74,0,0,0-5.8-4c-3.88,1-6.34,7.84-6.53,11.42,0,.21.13,2.51.24,4-.19-.84-.37-1.66-.58-2.53-.41-1.71-.87-3.41-1.35-5.24-.27-.88-.53-1.76-.8-2.66s-.63-1.8-.94-2.71c-.77-2.1-1.65-4.19-2.58-6.27,1.5-.36,6.81-1.71,8.95-3.35s4.37-4.3,4.35-7.13a4.75,4.75,0,0,0-5.13-4.86c-4,.43-7.45,6.79-8.17,10.3-.05.22-.29,2.79-.39,4.21-.57-1.25-1.13-2.49-1.75-3.74-1.78-3.59-3.7-7.17-5.6-10.75-.58-1.1-1.14-2.2-1.72-3.29.54-.13,6.89-1.6,9.28-3.43,2.12-1.63,4.38-4.3,4.36-7.13a4.74,4.74,0,0,0-5.13-4.86c-4,.43-7.46,6.78-8.18,10.29-.06.27-.39,4-.43,4.92-1.26-2.41-2.49-4.84-3.6-7.27a84.28,84.28,0,0,1-3.92-10.12c.25-.06,6.88-1.57,9.33-3.44,2.13-1.63,4.38-4.3,4.36-7.13a4.74,4.74,0,0,0-5.13-4.86c-4,.43-7.46,6.79-8.18,10.3-.06.27-.41,4.26-.43,5-.06-.2-.15-.4-.21-.6a62.47,62.47,0,0,1-2-10.69c-.22-2-.32-3.91-.38-5.77,1.26-.16,7-.93,9.42-2.37s4.83-3.79,5.12-6.61a4.76,4.76,0,0,0-4.57-5.4c-4,0-8.15,5.93-9.26,9.34-.06.19-.46,2.14-.73,3.57,0-.85,0-1.72,0-2.53,0-3,.2-5.81.39-8.27.12-1.4.25-2.66.39-3.84,1.16-.8,5.8-4.07,7.23-6.42S60,337.19,59,334.55a4.74,4.74,0,0,0-6.53-2.68c-3.57,1.84-4.51,9-3.92,12.55,0,.31,1.4,5,1.46,4.95l.07,0c-.16,1.13-.31,2.34-.45,3.67-.25,2.46-.5,5.25-.57,8.29a85.21,85.21,0,0,0,.23,9.85A61.94,61.94,0,0,0,51.07,382s0,.08,0,.12c-.63-1-2.49-3.7-2.66-3.9-2.34-2.71-8.47-6.57-12.16-5A4.76,4.76,0,0,0,34.18,380C35.55,382.45,38.81,383.68,41.46,384.07Z" style="fill:#263238"></path><path d="M110.29,365.21c.06,0,1.28-4.68,1.32-5,.5-3.55-.63-10.7-4.25-12.44a4.74,4.74,0,0,0-6.46,2.86c-1,2.66.26,5.93,1.71,8.18C104.32,361.45,110.28,365.21,110.29,365.21Z" style="fill:#263238"></path></g><g id="freepik--graphics-2--inject-2"><path d="M74.79,247.25A16.7,16.7,0,0,0,64.4,277L60,284.81a4,4,0,0,0-3.43,2l-12,20.81a4,4,0,1,0,6.92,4l12-20.81a4,4,0,0,0,0-4l4.35-7.66a16.56,16.56,0,0,0,7,1.56,16.72,16.72,0,1,0,0-33.43Zm0,30.43A13.72,13.72,0,1,1,88.51,264,13.73,13.73,0,0,1,74.79,277.68Z" style="opacity:0.2"></path><path d="M388.44,70.48a16.7,16.7,0,0,0,26.33,17.36L421.23,94a4,4,0,0,0,1.09,3.81l17.24,16.75a4,4,0,0,0,5.66-.08,4.14,4.14,0,0,0,1-1.81,4,4,0,0,0-1.1-3.85L427.89,92.09a4,4,0,0,0-3.89-1L417.64,85a16.7,16.7,0,1,0-29.2-14.56Zm29.5,7.43A13.71,13.71,0,1,1,408,61.27,13.73,13.73,0,0,1,417.94,77.91Z" style="opacity:0.2"></path><g style="opacity:0.2"><circle cx="419.38" cy="250.37" r="17.62" transform="translate(-33.87 68.37) rotate(-8.96)" style="fill:none;stroke:#000;stroke-linecap:round;stroke-linejoin:round"></circle><path d="M425.12,265.66l2.82-2.25-.28-1.41-.85-2.53-1.69-2-6.2-2a21.77,21.77,0,0,0-2.53,1.13c-1.69.84-1.69.28-2.82.28a6.19,6.19,0,0,1-2.53-.84l-2-3.38,1.4-3.39,1.69-2,.57-3.1,2.25-5.91.56-4a1.81,1.81,0,0,0-.53-1.07,17.62,17.62,0,0,0-12.15,11,14.52,14.52,0,0,0-.27,1.92l.28,3.09L404,251l2.26,2,1.41,2,2.53,3.94L413,260l2,2.53v4.85c.33.09.65.18,1,.24a18.09,18.09,0,0,1,3.42.34c.28,0,.55,0,.82,0A23.55,23.55,0,0,0,425.12,265.66Z" style="fill:none;stroke:#000;stroke-linecap:round;stroke-linejoin:round"></path><path d="M426.48,234.25,426,235l-.85,3.1s-2,2.81-.84,4.5a12.43,12.43,0,0,0,3.66,3.1h2.53l2.26-.84s.84-.28.84,1.69,2,5.07,2,5.07l1,2.59a17.58,17.58,0,0,0-10.1-19.92Z" style="fill:none;stroke:#000;stroke-linecap:round;stroke-linejoin:round"></path></g><g style="opacity:0.2"><circle cx="110.84" cy="96.93" r="17.62" style="fill:none;stroke:#000;stroke-linecap:round;stroke-linejoin:round"></circle><path d="M116.58,112.22l2.81-2.25-.28-1.41-.84-2.54-1.69-2-6.2-2a21.29,21.29,0,0,0-2.54,1.13c-1.69.84-1.69.28-2.81.28a6.15,6.15,0,0,1-2.54-.85l-2-3.38,1.41-3.38,1.69-2,.56-3.1,2.26-5.91.56-4a1.85,1.85,0,0,0-.54-1.07,17.62,17.62,0,0,0-12.15,11A14.51,14.51,0,0,0,94,92.78l.28,3.1,1.13,1.69,2.25,2,1.41,2,2.54,3.94,2.81,1.13,2,2.53V114c.32.08.64.17,1,.24a18.18,18.18,0,0,1,3.42.34c.27,0,.54,0,.82,0A23.55,23.55,0,0,0,116.58,112.22Z" style="fill:none;stroke:#000;stroke-linecap:round;stroke-linejoin:round"></path><path d="M117.93,80.81l-.51.71-.84,3.09s-2,2.82-.85,4.51a12.56,12.56,0,0,0,3.66,3.1h2.54l2.25-.85s.85-.28.85,1.69,2,5.08,2,5.08l1,2.58a17.5,17.5,0,0,0-10.1-19.91Z" style="fill:none;stroke:#000;stroke-linecap:round;stroke-linejoin:round"></path></g><g style="opacity:0.2"><circle cx="129.88" cy="290.78" r="24.88" transform="translate(-66.09 39.74) rotate(-13.91)" style="fill:none;stroke:#000;stroke-linecap:round;stroke-linejoin:round"></circle><path d="M138,312.37l4-3.18-.4-2-1.19-3.58L138,300.83l-8.75-2.78a32.23,32.23,0,0,0-3.58,1.59c-2.39,1.19-2.39.4-4,.4a8.72,8.72,0,0,1-3.58-1.19l-2.78-4.78,2-4.77,2.38-2.78.8-4.38,3.18-8.35.8-5.57a2.64,2.64,0,0,0-.76-1.51,24.87,24.87,0,0,0-17.16,15.51,21.37,21.37,0,0,0-.38,2.7l.4,4.38,1.59,2.39,3.18,2.78,2,2.78,3.58,5.57,4,1.59,2.78,3.58v6.85c.46.12.92.24,1.39.34a25.86,25.86,0,0,1,4.83.47c.39,0,.77,0,1.16,0C133.54,315.05,138,312.37,138,312.37Z" style="fill:none;stroke:#000;stroke-linecap:round;stroke-linejoin:round"></path><path d="M139.89,268l-.72,1L138,273.39s-2.78,4-1.19,6.36,5.17,4.38,5.17,4.38h3.58l3.18-1.19s1.19-.4,1.19,2.38,2.79,7.16,2.79,7.16l1.46,3.65A24.82,24.82,0,0,0,139.89,268Z" style="fill:none;stroke:#000;stroke-linecap:round;stroke-linejoin:round"></path></g><g style="opacity:0.2"><path d="M121.13,335.81v7.33h-1.81V326.86h1.81v7.32h4v-7.32h1.81v16.28h-1.81v-7.33Z"></path><path d="M131.15,343.14V328.51h-3v-1.65h7.79v1.65h-3v14.63Z"></path><path d="M139.52,343.14V328.51h-3v-1.65h7.79v1.65h-3v14.63Z"></path><path d="M149.09,326.86c2.56,0,3.65,1.51,3.65,4v2c0,2.58-1.21,3.93-3.79,3.93h-1.6v6.42h-1.81V326.86Zm-.14,8.23c1.35,0,2-.63,2-2.18v-2.17c0-1.48-.53-2.23-1.86-2.23h-1.74v6.58Z"></path><path d="M155.9,332v2.26h-1.74V332Zm0,8.86v2.26h-1.74v-2.26Z"></path><path d="M165.2,326.86l-6.41,16.28h-1.58l6.41-16.28Z"></path><path d="M169.76,326.86l-6.42,16.28h-1.58l6.42-16.28Z"></path><path d="M175.38,343.14H172.9l-2.24-16.28h1.77l1.91,13.86,1.81-13.84h1.79l1.79,13.86,1.84-13.88h1.58l-2.21,16.28h-2.39L177,332.09Z"></path><path d="M188.94,343.14h-2.49l-2.23-16.28H186l1.91,13.86,1.81-13.84h1.79l1.79,13.86,1.84-13.88h1.58l-2.21,16.28H192.1l-1.56-11.05Z"></path><path d="M202.49,343.14H200l-2.23-16.28h1.77l1.9,13.86,1.81-13.84h1.8l1.78,13.86,1.84-13.88h1.58L208,343.14h-2.39l-1.56-11.05Z"></path><path d="M212.53,340.88v2.26h-1.74v-2.26Z"></path><path d="M216.13,340.88v2.26h-1.74v-2.26Z"></path><path d="M219.74,340.88v2.26H218v-2.26Z"></path></g><g style="opacity:0.2"><path d="M386.79,130.23v7.32H385V121.28h1.81v7.32h4v-7.32h1.82v16.27h-1.82v-7.32Z"></path><path d="M396.81,137.55V122.93h-3v-1.65h7.79v1.65h-3v14.62Z"></path><path d="M405.18,137.55V122.93h-3v-1.65H410v1.65h-3v14.62Z"></path><path d="M414.76,121.28c2.55,0,3.65,1.51,3.65,4v2c0,2.58-1.21,3.93-3.79,3.93H413v6.41H411.2V121.28Zm-.14,8.23c1.35,0,2-.63,2-2.19v-2.16c0-1.49-.54-2.23-1.86-2.23H413v6.58Z"></path><path d="M421.57,126.44v2.26h-1.75v-2.26Zm0,8.86v2.25h-1.75V135.3Z"></path><path d="M430.87,121.28l-6.42,16.27h-1.58l6.41-16.27Z"></path><path d="M435.42,121.28,429,137.55h-1.59l6.42-16.27Z"></path><path d="M441.05,137.55h-2.49l-2.23-16.27h1.76L440,135.14l1.81-13.84h1.79l1.79,13.86,1.84-13.88h1.58l-2.21,16.27h-2.39l-1.56-11Z"></path><path d="M454.6,137.55h-2.49l-2.23-16.27h1.77l1.9,13.86,1.82-13.84h1.79L459,135.16l1.83-13.88h1.58l-2.21,16.27h-2.39l-1.56-11Z"></path><path d="M468.15,137.55h-2.49l-2.23-16.27h1.77l1.9,13.86,1.82-13.84h1.79l1.79,13.86,1.83-13.88h1.59l-2.21,16.27h-2.4l-1.56-11Z"></path><path d="M478.19,135.3v2.25h-1.74V135.3Z"></path><path d="M481.79,135.3v2.25h-1.74V135.3Z"></path><path d="M485.4,135.3v2.25h-1.75V135.3Z"></path></g><g style="opacity:0.2"><path d="M67.79,59.23v7.32H66V50.28h1.81V57.6h4V50.28h1.82V66.55H71.79V59.23Z"></path><path d="M77.81,66.55V51.93h-3V50.28H82.6v1.65h-3V66.55Z"></path><path d="M86.18,66.55V51.93h-3V50.28H91v1.65H88V66.55Z"></path><path d="M95.76,50.28c2.55,0,3.65,1.51,3.65,4v2c0,2.58-1.21,3.93-3.79,3.93H94v6.41H92.2V50.28Zm-.14,8.23c1.35,0,2-.63,2-2.19V54.16c0-1.49-.54-2.23-1.86-2.23H94v6.58Z"></path><path d="M102.57,55.44V57.7h-1.75V55.44Zm0,8.86v2.25h-1.75V64.3Z"></path><path d="M111.87,50.28l-6.42,16.27h-1.58l6.41-16.27Z"></path><path d="M116.42,50.28,110,66.55h-1.59l6.42-16.27Z"></path><path d="M122.05,66.55h-2.49l-2.23-16.27h1.76L121,64.14l1.81-13.84h1.79l1.79,13.86,1.84-13.88h1.58L127.6,66.55h-2.39l-1.56-11Z"></path><path d="M135.6,66.55h-2.49l-2.23-16.27h1.77l1.9,13.86,1.82-13.84h1.79L140,64.16l1.83-13.88h1.58l-2.21,16.27h-2.39l-1.56-11Z"></path><path d="M149.15,66.55h-2.49l-2.23-16.27h1.77l1.9,13.86,1.82-13.84h1.79l1.79,13.86,1.83-13.88h1.58l-2.2,16.27h-2.4l-1.56-11Z"></path><path d="M159.19,64.3v2.25h-1.74V64.3Z"></path><path d="M162.79,64.3v2.25h-1.74V64.3Z"></path><path d="M166.4,64.3v2.25h-1.75V64.3Z"></path></g></g><g id="freepik--graphic-1--inject-2"><path d="M250.6,41.52c-72,0-130.52,58.55-130.52,130.53A130.67,130.67,0,0,0,250.6,302.57c72,0,130.53-58.55,130.53-130.52S322.57,41.52,250.6,41.52Zm123.47,127h-57c-.3-22.68-3.49-44.39-9.24-63.41A130.27,130.27,0,0,0,338,84.79,123.13,123.13,0,0,1,374.07,168.55Zm-123.47,127c-15.43,0-30.15-12.52-41.43-35.26a145.37,145.37,0,0,1-7.23-17.54,124,124,0,0,1,97.33,0A145.39,145.39,0,0,1,292,260.31C280.75,283.05,266,295.57,250.6,295.57Zm0-69.75a130.44,130.44,0,0,0-50.82,10.25c-5.38-18.15-8.37-38.86-8.66-60.52h119c-.29,21.66-3.28,42.37-8.67,60.52A130.37,130.37,0,0,0,250.6,225.82Zm-59.48-57.27c.29-21.65,3.27-42.34,8.65-60.48a130.29,130.29,0,0,0,50.83,10.27,130.34,130.34,0,0,0,50.84-10.27c5.37,18.14,8.36,38.83,8.65,60.48Zm59.48-120C266,48.52,280.75,61,292,83.78a145.55,145.55,0,0,1,7.26,17.59,123.31,123.31,0,0,1-48.69,10,123.26,123.26,0,0,1-48.68-10,145.53,145.53,0,0,1,7.25-17.59C220.45,61,235.17,48.52,250.6,48.52ZM332.85,80a123.84,123.84,0,0,1-27.19,18.45,150.34,150.34,0,0,0-7.36-17.75c-6.41-12.94-14-22.88-22.31-29.52A123.25,123.25,0,0,1,332.85,80Zm-130,.7a152.05,152.05,0,0,0-7.36,17.75A123.78,123.78,0,0,1,168.36,80a123.25,123.25,0,0,1,56.86-28.82C216.9,57.79,209.32,67.73,202.9,80.67Zm-39.65,4.12a130.21,130.21,0,0,0,30.1,20.35c-5.74,19-8.93,40.73-9.23,63.41h-57A123.14,123.14,0,0,1,163.25,84.79Zm-36.12,90.76h57c.3,22.69,3.49,44.42,9.25,63.45a130.38,130.38,0,0,0-30.09,20.33A123.13,123.13,0,0,1,127.13,175.55Zm41.26,88.6a123.59,123.59,0,0,1,27.17-18.42,152.78,152.78,0,0,0,7.34,17.69c6.42,12.94,14,22.89,22.32,29.52A123.24,123.24,0,0,1,168.39,264.15Zm129.91-.73a151.06,151.06,0,0,0,7.35-17.69,123.83,123.83,0,0,1,27.17,18.42A123.29,123.29,0,0,1,276,292.94C284.31,286.31,291.89,276.36,298.3,263.42Zm39.63-4.09A130.38,130.38,0,0,0,307.84,239c5.75-19,9-40.76,9.25-63.45h57A123.17,123.17,0,0,1,337.93,259.33Z" style="fill:#263238"></path></g><g id="freepik--Device--inject-2"><polygon points="285.55 467.89 181.46 453.89 112.74 455.25 192.3 480.01 285.55 467.89" style="fill:#d1d1d1;stroke:#263238;stroke-linecap:round;stroke-linejoin:round"></polygon><polygon points="204.75 458.08 191.18 459.16 220.22 463.5 237.59 462.96 204.75 458.08" style="fill:none;stroke:#263238;stroke-linecap:round;stroke-linejoin:round"></polygon><polyline points="189 460.25 232.43 467.3 190.36 469.75" style="fill:none;stroke:#263238;stroke-linecap:round;stroke-linejoin:round"></polyline><polygon points="93.25 369.89 112.74 455.25 192.3 480.01 170.7 373.58 93.25 369.89" style="fill:#d1d1d1;stroke:#263238;stroke-linecap:round;stroke-linejoin:round"></polygon><path d="M175.12,395.37c-11,10.47-23.64,27.95-38.12,45.43-8.45,10.2-17.28,13.14-24.54,13.22l.28,1.23L192.3,480Z" style="fill:#a6a6a6;stroke:#263238;stroke-linecap:round;stroke-linejoin:round"></path><path d="M142.54,414.69c1.09,4.71-.46,9.08-3.45,9.78s-6.31-2.56-7.4-7.27.46-9.09,3.45-9.78S141.45,410,142.54,414.69Z" style="fill:#fff;stroke:#263238;stroke-linecap:round;stroke-linejoin:round"></path><polygon points="192.3 480.01 285.55 472.11 285.55 467.89 190.72 473.16 192.3 480.01" style="fill:#a6a6a6;stroke:#263238;stroke-linecap:round;stroke-linejoin:round"></polygon></g></svg>